{
	"asset":{
		"generator":"Khronos glTF Blender I/O v4.2.69",
		"version":"2.0"
	},
	"extensionsUsed":[
		"KHR_materials_specular"
	],
	"scene":0,
	"scenes":[
		{
			"name":"Scene",
			"nodes":[
				0
			]
		}
	],
	"nodes":[
		{
			"mesh":0,
			"name":"BIG_1"
		}
	],
	"materials":[
		{
			"doubleSided":true,
			"extensions":{
				"KHR_materials_specular":{
					"specularColorFactor":[
						2.0,
						2.0,
						2.0
					]
				}
			},
			"name":"BiG",
			"pbrMetallicRoughness":{
				"metallicFactor":0,
				"roughnessFactor":0.5527864098548889
			}
		}
	],
	"meshes":[
		{
			"name":"Mesh.004",
			"primitives":[
				{
					"attributes":{
						"POSITION":0,
						"NORMAL":1,
						"TEXCOORD_0":2
					},
					"indices":3,
					"material":0
				}
			]
		}
	],
	"accessors":[
		{
			"bufferView":0,
			"componentType":5126,
			"count":3447,
			"max":[
				2.519240379333496,
				5.518613338470459,
				2.3613405227661133
			],
			"min":[
				-2.4250354766845703,
				-0.14305424690246582,
				-2.607940673828125
			],
			"type":"VEC3"
		},
		{
			"bufferView":1,
			"componentType":5126,
			"count":3447,
			"type":"VEC3"
		},
		{
			"bufferView":2,
			"componentType":5126,
			"count":3447,
			"type":"VEC2"
		},
		{
			"bufferView":3,
			"componentType":5123,
			"count":17532,
			"type":"SCALAR"
		}
	],
	"bufferViews":[
		{
			"buffer":0,
			"byteLength":41364,
			"byteOffset":0,
			"target":34962
		},
		{
			"buffer":0,
			"byteLength":41364,
			"byteOffset":41364,
			"target":34962
		},
		{
			"buffer":0,
			"byteLength":27576,
			"byteOffset":82728,
			"target":34962
		},
		{
			"buffer":0,
			"byteLength":35064,
			"byteOffset":110304,
			"target":34963
		}
	],
	"buffers":[
		{
			"byteLength":145368,
			"uri":"Stone3.bin"
		}
	]
}
