{
	"asset":{
		"generator":"Khronos glTF Blender I/O v4.2.69",
		"version":"2.0"
	},
	"extensionsUsed":[
		"KHR_materials_specular"
	],
	"scene":0,
	"scenes":[
		{
			"name":"Scene",
			"nodes":[
				0
			]
		}
	],
	"nodes":[
		{
			"mesh":0,
			"name":"Big_2"
		}
	],
	"materials":[
		{
			"doubleSided":true,
			"extensions":{
				"KHR_materials_specular":{
					"specularColorFactor":[
						2.0,
						2.0,
						2.0
					]
				}
			},
			"name":"BiG",
			"pbrMetallicRoughness":{
				"metallicFactor":0,
				"roughnessFactor":0.5527864098548889
			}
		}
	],
	"meshes":[
		{
			"name":"Mesh.005",
			"primitives":[
				{
					"attributes":{
						"POSITION":0,
						"NORMAL":1,
						"TEXCOORD_0":2
					},
					"indices":3,
					"material":0
				}
			]
		}
	],
	"accessors":[
		{
			"bufferView":0,
			"componentType":5126,
			"count":3552,
			"max":[
				4.043821334838867,
				3.737549304962158,
				2.77935791015625
			],
			"min":[
				-3.351426601409912,
				-0.28461921215057373,
				-2.511739730834961
			],
			"type":"VEC3"
		},
		{
			"bufferView":1,
			"componentType":5126,
			"count":3552,
			"type":"VEC3"
		},
		{
			"bufferView":2,
			"componentType":5126,
			"count":3552,
			"type":"VEC2"
		},
		{
			"bufferView":3,
			"componentType":5123,
			"count":18246,
			"type":"SCALAR"
		}
	],
	"bufferViews":[
		{
			"buffer":0,
			"byteLength":42624,
			"byteOffset":0,
			"target":34962
		},
		{
			"buffer":0,
			"byteLength":42624,
			"byteOffset":42624,
			"target":34962
		},
		{
			"buffer":0,
			"byteLength":28416,
			"byteOffset":85248,
			"target":34962
		},
		{
			"buffer":0,
			"byteLength":36492,
			"byteOffset":113664,
			"target":34963
		}
	],
	"buffers":[
		{
			"byteLength":150156,
			"uri":"Stone1.bin"
		}
	]
}
