{
	"asset":{
		"generator":"Khronos glTF Blender I/O v4.2.69",
		"version":"2.0"
	},
	"extensionsUsed":[
		"KHR_materials_specular"
	],
	"scene":0,
	"scenes":[
		{
			"name":"Scene",
			"nodes":[
				0
			]
		}
	],
	"nodes":[
		{
			"mesh":0,
			"name":"Ash1_LOD0"
		}
	],
	"materials":[
		{
			"alphaMode":"BLEND",
			"doubleSided":true,
			"extensions":{
				"KHR_materials_specular":{
					"specularColorFactor":[
						2.0,
						2.0,
						2.0
					]
				}
			},
			"name":"Tree_0Mat.001",
			"pbrMetallicRoughness":{
				"roughnessFactor":0.5527864098548889
			}
		}
	],
	"meshes":[
		{
			"name":"Mesh",
			"primitives":[
				{
					"attributes":{
						"POSITION":0,
						"NORMAL":1,
						"TEXCOORD_0":2,
						"COLOR_0":3,
						"COLOR_1":4
					},
					"indices":5,
					"material":0
				}
			]
		}
	],
	"accessors":[
		{
			"bufferView":0,
			"componentType":5126,
			"count":5916,
			"max":[
				2.6933834552764893,
				7.029941082000732,
				2.696657419204712
			],
			"min":[
				-2.2212986946105957,
				-8.59601132106036e-05,
				-2.469452381134033
			],
			"type":"VEC3"
		},
		{
			"bufferView":1,
			"componentType":5126,
			"count":5916,
			"type":"VEC3"
		},
		{
			"bufferView":2,
			"componentType":5126,
			"count":5916,
			"type":"VEC2"
		},
		{
			"bufferView":3,
			"componentType":5121,
			"count":5916,
			"normalized":true,
			"type":"VEC4"
		},
		{
			"bufferView":4,
			"componentType":5126,
			"count":5916,
			"type":"VEC3"
		},
		{
			"bufferView":5,
			"componentType":5123,
			"count":25575,
			"type":"SCALAR"
		}
	],
	"bufferViews":[
		{
			"buffer":0,
			"byteLength":70992,
			"byteOffset":0,
			"target":34962
		},
		{
			"buffer":0,
			"byteLength":70992,
			"byteOffset":70992,
			"target":34962
		},
		{
			"buffer":0,
			"byteLength":47328,
			"byteOffset":141984,
			"target":34962
		},
		{
			"buffer":0,
			"byteLength":23664,
			"byteOffset":189312,
			"target":34962
		},
		{
			"buffer":0,
			"byteLength":70992,
			"byteOffset":212976,
			"target":34962
		},
		{
			"buffer":0,
			"byteLength":51150,
			"byteOffset":283968,
			"target":34963
		}
	],
	"buffers":[
		{
			"byteLength":335120,
			"uri":"Ash1.bin"
		}
	]
}
