{
	"asset":{
		"generator":"Khronos glTF Blender I/O v4.2.69",
		"version":"2.0"
	},
	"extensionsUsed":[
		"KHR_materials_specular",
		"KHR_materials_ior"
	],
	"scene":0,
	"scenes":[
		{
			"name":"Scene",
			"nodes":[
				0
			]
		}
	],
	"nodes":[
		{
			"mesh":0,
			"name":"Tree-1"
		}
	],
	"materials":[
		{
			"doubleSided":true,
			"name":"Bark",
			"normalTexture":{
				"index":0
			},
			"pbrMetallicRoughness":{
				"baseColorTexture":{
					"index":1
				},
				"metallicFactor":0,
				"metallicRoughnessTexture":{
					"index":2
				}
			}
		},
		{
			"alphaMode":"MASK",
			"doubleSided":true,
			"extensions":{
				"KHR_materials_specular":{
					"specularFactor":0.19999998807907104
				},
				"KHR_materials_ior":{
					"ior":1.4500000476837158
				}
			},
			"name":"Leaf",
			"normalTexture":{
				"index":3
			},
			"pbrMetallicRoughness":{
				"baseColorTexture":{
					"index":4
				},
				"metallicFactor":0,
				"roughnessFactor":0.5
			}
		}
	],
	"meshes":[
		{
			"name":"Bark.001",
			"primitives":[
				{
					"attributes":{
						"POSITION":0,
						"NORMAL":1,
						"TEXCOORD_0":2,
						"TEXCOORD_1":3,
						"COLOR_0":4,
						"COLOR_1":5
					},
					"indices":6,
					"material":0
				},
				{
					"attributes":{
						"POSITION":7,
						"NORMAL":8,
						"TEXCOORD_0":9,
						"TEXCOORD_1":10,
						"COLOR_0":11,
						"COLOR_1":12
					},
					"indices":13,
					"material":1
				}
			]
		}
	],
	"textures":[
		{
			"sampler":0,
			"source":0
		},
		{
			"sampler":0,
			"source":1
		},
		{
			"sampler":0,
			"source":2
		},
		{
			"sampler":0,
			"source":3
		},
		{
			"sampler":0,
			"source":4
		}
	],
	"images":[
		{
			"mimeType":"image/png",
			"name":"bark_brown_02_nor_gl_1k",
			"uri":"bark_brown_02_nor_gl_1k.png"
		},
		{
			"mimeType":"image/jpeg",
			"name":"bark_brown_02_diff_1k",
			"uri":"bark_brown_02_diff_1k.jpg"
		},
		{
			"mimeType":"image/png",
			"name":"bark_brown_02_rough_1k",
			"uri":"bark_brown_02_rough_1k.png"
		},
		{
			"mimeType":"image/png",
			"name":"Ivy_branch_Variation_1_Normal",
			"uri":"Ivy_branch_Variation_1_Normal.png"
		},
		{
			"mimeType":"image/png",
			"name":"Ivy_branch_Variation_1_Diffuse-Ivy_branch_Variation_1_Opacity",
			"uri":"Ivy_branch_Variation_1_Diffuse-Ivy_branch_Variation_1_Opacity.png"
		}
	],
	"accessors":[
		{
			"bufferView":0,
			"componentType":5126,
			"count":96,
			"max":[
				0.03960636258125305,
				4.7253313064575195,
				0.0904495045542717
			],
			"min":[
				-0.13735537230968475,
				-0.0010435181902721524,
				-0.09336309134960175
			],
			"type":"VEC3"
		},
		{
			"bufferView":1,
			"componentType":5126,
			"count":96,
			"type":"VEC3"
		},
		{
			"bufferView":2,
			"componentType":5126,
			"count":96,
			"type":"VEC2"
		},
		{
			"bufferView":3,
			"componentType":5126,
			"count":96,
			"type":"VEC2"
		},
		{
			"bufferView":4,
			"componentType":5121,
			"count":96,
			"normalized":true,
			"type":"VEC4"
		},
		{
			"bufferView":5,
			"componentType":5126,
			"count":96,
			"type":"VEC3"
		},
		{
			"bufferView":6,
			"componentType":5123,
			"count":462,
			"type":"SCALAR"
		},
		{
			"bufferView":7,
			"componentType":5126,
			"count":880,
			"max":[
				1.1884337663650513,
				5.012310028076172,
				1.1816670894622803
			],
			"min":[
				-1.2248859405517578,
				0.015579483471810818,
				-1.069847583770752
			],
			"type":"VEC3"
		},
		{
			"bufferView":8,
			"componentType":5126,
			"count":880,
			"type":"VEC3"
		},
		{
			"bufferView":9,
			"componentType":5126,
			"count":880,
			"type":"VEC2"
		},
		{
			"bufferView":10,
			"componentType":5126,
			"count":880,
			"type":"VEC2"
		},
		{
			"bufferView":11,
			"componentType":5121,
			"count":880,
			"normalized":true,
			"type":"VEC4"
		},
		{
			"bufferView":12,
			"componentType":5126,
			"count":880,
			"type":"VEC3"
		},
		{
			"bufferView":13,
			"componentType":5123,
			"count":1320,
			"type":"SCALAR"
		}
	],
	"bufferViews":[
		{
			"buffer":0,
			"byteLength":1152,
			"byteOffset":0,
			"target":34962
		},
		{
			"buffer":0,
			"byteLength":1152,
			"byteOffset":1152,
			"target":34962
		},
		{
			"buffer":0,
			"byteLength":768,
			"byteOffset":2304,
			"target":34962
		},
		{
			"buffer":0,
			"byteLength":768,
			"byteOffset":3072,
			"target":34962
		},
		{
			"buffer":0,
			"byteLength":384,
			"byteOffset":3840,
			"target":34962
		},
		{
			"buffer":0,
			"byteLength":1152,
			"byteOffset":4224,
			"target":34962
		},
		{
			"buffer":0,
			"byteLength":924,
			"byteOffset":5376,
			"target":34963
		},
		{
			"buffer":0,
			"byteLength":10560,
			"byteOffset":6300,
			"target":34962
		},
		{
			"buffer":0,
			"byteLength":10560,
			"byteOffset":16860,
			"target":34962
		},
		{
			"buffer":0,
			"byteLength":7040,
			"byteOffset":27420,
			"target":34962
		},
		{
			"buffer":0,
			"byteLength":7040,
			"byteOffset":34460,
			"target":34962
		},
		{
			"buffer":0,
			"byteLength":3520,
			"byteOffset":41500,
			"target":34962
		},
		{
			"buffer":0,
			"byteLength":10560,
			"byteOffset":45020,
			"target":34962
		},
		{
			"buffer":0,
			"byteLength":2640,
			"byteOffset":55580,
			"target":34963
		}
	],
	"samplers":[
		{
			"magFilter":9729,
			"minFilter":9987
		}
	],
	"buffers":[
		{
			"byteLength":58220,
			"uri":"LowPolyTrees.bin"
		}
	]
}
