{
	"asset":{
		"generator":"Khronos glTF Blender I/O v3.6.28",
		"version":"2.0"
	},
	"scene":0,
	"scenes":[
		{
			"name":"Scene",
			"nodes":[
				3
			]
		}
	],
	"nodes":[
		{
			"mesh":0,
			"name":"defaultMaterial"
		},
		{
			"children":[
				0
			],
			"name":"SM_LongSword",
			"rotation":[
				1,
				0,
				0,
				0
			]
		},
		{
			"children":[
				1
			],
			"name":"Collada visual scene group"
		},
		{
			"children":[
				2
			],
			"name":"Sketchfab_model"
		}
	],
	"materials":[
		{
			"doubleSided":true,
			"name":"M_LongSword",
			"normalTexture":{
				"index":0
			},
			"occlusionTexture":{
				"index":1
			},
			"pbrMetallicRoughness":{
				"baseColorTexture":{
					"index":2
				},
				"metallicRoughnessTexture":{
					"index":1
				}
			}
		}
	],
	"meshes":[
		{
			"name":"defaultMaterial",
			"primitives":[
				{
					"attributes":{
						"POSITION":0,
						"NORMAL":1,
						"TEXCOORD_0":2
					},
					"indices":3,
					"material":0
				}
			]
		}
	],
	"textures":[
		{
			"sampler":0,
			"source":0
		},
		{
			"sampler":0,
			"source":1
		},
		{
			"sampler":0,
			"source":2
		}
	],
	"images":[
		{
			"mimeType":"image/png",
			"name":"M_LongSword_normal",
			"uri":"M_LongSword_normal.png"
		},
		{
			"mimeType":"image/png",
			"name":"M_LongSword_metallicRoughness",
			"uri":"M_LongSword_metallicRoughness.png"
		},
		{
			"mimeType":"image/jpeg",
			"name":"M_LongSword_baseColor",
			"uri":"M_LongSword_baseColor.jpg"
		}
	],
	"accessors":[
		{
			"bufferView":0,
			"componentType":5126,
			"count":1029,
			"max":[
				0.01607441157102585,
				0.8393886685371399,
				0.10252798348665237
			],
			"min":[
				-0.016499396413564682,
				-0.1606113612651825,
				-0.10252801328897476
			],
			"type":"VEC3"
		},
		{
			"bufferView":1,
			"componentType":5126,
			"count":1029,
			"type":"VEC3"
		},
		{
			"bufferView":2,
			"componentType":5126,
			"count":1029,
			"type":"VEC2"
		},
		{
			"bufferView":3,
			"componentType":5123,
			"count":4248,
			"type":"SCALAR"
		}
	],
	"bufferViews":[
		{
			"buffer":0,
			"byteLength":12348,
			"byteOffset":0,
			"target":34962
		},
		{
			"buffer":0,
			"byteLength":12348,
			"byteOffset":12348,
			"target":34962
		},
		{
			"buffer":0,
			"byteLength":8232,
			"byteOffset":24696,
			"target":34962
		},
		{
			"buffer":0,
			"byteLength":8496,
			"byteOffset":32928,
			"target":34963
		}
	],
	"samplers":[
		{
			"magFilter":9729,
			"minFilter":9987
		}
	],
	"buffers":[
		{
			"byteLength":41424,
			"uri":"sword.bin"
		}
	]
}
