{
	"asset":{
		"generator":"Khronos glTF Blender I/O v4.2.69",
		"version":"2.0"
	},
	"extensionsUsed":[
		"KHR_materials_specular"
	],
	"scene":0,
	"scenes":[
		{
			"name":"Scene",
			"nodes":[
				22
			]
		}
	],
	"nodes":[
		{
			"name":"Head",
			"rotation":[
				0,
				0,
				-2.842170943040401e-14,
				1
			],
			"translation":[
				-6.945588852322326e-15,
				-0.02199999988079071,
				0.10500001907348633
			]
		},
		{
			"children":[
				0
			],
			"name":"Neck",
			"rotation":[
				2.1440521477374477e-21,
				1.4210854715202004e-14,
				1.4210853021136109e-14,
				1
			],
			"translation":[
				7.105429051666896e-15,
				2.9802308176840597e-08,
				0.28999996185302734
			]
		},
		{
			"name":"Hand_L",
			"rotation":[
				-6.132167129635491e-08,
				-4.360158847198977e-15,
				4.129238184019668e-15,
				1
			],
			"translation":[
				2.1267553051984578e-08,
				1.5346499537827185e-07,
				0.2430000752210617
			]
		},
		{
			"children":[
				2
			],
			"name":"ForeArm_L",
			"rotation":[
				-7.105422275403318e-15,
				-9.355452644402382e-15,
				6.169882855490416e-14,
				1
			],
			"translation":[
				2.6488564230930933e-08,
				9.996641381349036e-08,
				0.312000036239624
			]
		},
		{
			"children":[
				3
			],
			"name":"Shoulder_L",
			"rotation":[
				-9.552023527703568e-08,
				-1.906828401843086e-07,
				2.2512329863775757e-14,
				1
			],
			"translation":[
				0.07000009715557098,
				-0.028999822214245796,
				0.17099998891353607
			]
		},
		{
			"children":[
				4
			],
			"name":"Collar_L",
			"rotation":[
				0.5000001192092896,
				0.4999998211860657,
				0.4999997913837433,
				0.5000001788139343
			],
			"scale":[
				0.9999999403953552,
				0.9999998211860657,
				0.9999998807907104
			],
			"translation":[
				0.028999997302889824,
				-0.06999999284744263,
				0.2359999567270279
			]
		},
		{
			"name":"Hand_R",
			"rotation":[
				-6.132165708550019e-08,
				-8.073113371928099e-17,
				3.590238085396814e-15,
				1
			],
			"translation":[
				1.8762857934007116e-08,
				3.4255666747640134e-08,
				0.24300001561641693
			]
		},
		{
			"children":[
				6
			],
			"name":"ForeArm_R",
			"rotation":[
				-2.117582368135751e-21,
				3.138203282985032e-15,
				-5.814612165236724e-14,
				1
			],
			"translation":[
				2.649600894244486e-08,
				-1.3845219370978157e-07,
				0.312000036239624
			]
		},
		{
			"children":[
				7
			],
			"name":"Shoulder_R",
			"rotation":[
				-9.552023527703568e-08,
				-1.7091345227981947e-07,
				1.6285170640392005e-14,
				1
			],
			"translation":[
				-0.07000000774860382,
				-0.028999941423535347,
				0.17100004851818085
			]
		},
		{
			"children":[
				8
			],
			"name":"Collar_R",
			"rotation":[
				0.5,
				-0.5,
				-0.4999999701976776,
				0.5
			],
			"scale":[
				0.9999999403953552,
				0.9999997615814209,
				0.9999998807907104
			],
			"translation":[
				-0.029000001028180122,
				-0.06999999284744263,
				0.2359999567270279
			]
		},
		{
			"children":[
				1,
				5,
				9
			],
			"name":"Chest",
			"rotation":[
				-2.1440521477374477e-21,
				-1.4210854715202004e-14,
				1.4210854715202004e-14,
				1
			],
			"translation":[
				-4.235164736271502e-22,
				1.4901161193847656e-08,
				0.1700000762939453
			]
		},
		{
			"children":[
				10
			],
			"name":"Body",
			"rotation":[
				0,
				0,
				-5.553580772755923e-28,
				1
			],
			"translation":[
				-3.552713678800501e-15,
				1.4901161193847656e-08,
				0.1799999475479126
			]
		},
		{
			"name":"Toe_L",
			"rotation":[
				4.834344480286745e-08,
				1.556571101938957e-14,
				7.138397268039928e-15,
				1
			],
			"translation":[
				6.654244710802004e-09,
				-0.07250002026557922,
				0.13600000739097595
			]
		},
		{
			"children":[
				12
			],
			"name":"Foot_L",
			"rotation":[
				-0.70710688829422,
				1.0748838263907601e-07,
				1.033480003798104e-07,
				0.7071066498756409
			],
			"scale":[
				1,
				0.9999999403953552,
				1
			],
			"translation":[
				-3.651876134824761e-09,
				-5.960464477539063e-08,
				0.42250001430511475
			]
		},
		{
			"children":[
				13
			],
			"name":"Shin_L",
			"rotation":[
				-3.5269021481099116e-08,
				-1.0707557063227569e-09,
				-1.4985900520514406e-07,
				1
			],
			"scale":[
				1,
				0.9999999403953552,
				1
			],
			"translation":[
				-1.2689699246948294e-07,
				2.980232949312267e-08,
				0.42100000381469727
			]
		},
		{
			"children":[
				14
			],
			"name":"Thigh_L",
			"rotation":[
				-1,
				3.00854793522376e-07,
				7.549790126404332e-08,
				7.417298112516457e-16
			],
			"translation":[
				0.09300000220537186,
				5.329063741937173e-15,
				0.04100000858306885
			]
		},
		{
			"name":"Toe_R",
			"rotation":[
				-4.8343466119149525e-08,
				-1.958700332461115e-14,
				-7.306655280814311e-15,
				1
			],
			"translation":[
				-1.1322082160702962e-09,
				-0.07249996066093445,
				0.13600005209445953
			]
		},
		{
			"children":[
				16
			],
			"name":"Foot_R",
			"rotation":[
				-0.7071067690849304,
				1.0748843948249487e-07,
				1.016017492361243e-07,
				0.7071067690849304
			],
			"translation":[
				-3.4728282471974126e-09,
				-5.960464477539063e-08,
				0.42250004410743713
			]
		},
		{
			"children":[
				17
			],
			"name":"Shin_R",
			"rotation":[
				-6.31320972401179e-16,
				1.6402013081062705e-10,
				-1.4985900520514406e-07,
				1
			],
			"scale":[
				1,
				0.9999999403953552,
				1
			],
			"translation":[
				-1.2689699246948294e-07,
				1.4210854715202004e-14,
				0.42100000381469727
			]
		},
		{
			"children":[
				18
			],
			"name":"Thigh_R",
			"rotation":[
				-1,
				3.00854793522376e-07,
				7.549790126404332e-08,
				7.417298112516457e-16
			],
			"translation":[
				-0.09300000220537186,
				8.881777420737674e-15,
				0.04100000858306885
			]
		},
		{
			"children":[
				11,
				15,
				19
			],
			"name":"Hip",
			"rotation":[
				1,
				-1.5099580252808664e-07,
				1.4210861491465582e-14,
				2.1316282072803006e-14
			],
			"translation":[
				-1.5777218104420236e-30,
				0,
				-0.875
			]
		},
		{
			"mesh":0,
			"name":"BlueGuy",
			"skin":0
		},
		{
			"children":[
				21,
				20
			],
			"name":"Root",
			"rotation":[
				0.70710688829422,
				0,
				0,
				0.7071066498756409
			]
		}
	],
	"materials":[
		{
			"doubleSided":true,
			"extensions":{
				"KHR_materials_specular":{
					"specularFactor":0
				}
			},
			"name":"Blue",
			"pbrMetallicRoughness":{
				"baseColorFactor":[
					0.5,
					0.5,
					1,
					1
				],
				"metallicFactor":0,
				"roughnessFactor":0
			}
		}
	],
	"meshes":[
		{
			"name":"Mesh",
			"primitives":[
				{
					"attributes":{
						"POSITION":0,
						"NORMAL":1,
						"TEXCOORD_0":2,
						"JOINTS_0":3,
						"WEIGHTS_0":4
					},
					"indices":5,
					"material":0
				}
			]
		}
	],
	"skins":[
		{
			"inverseBindMatrices":6,
			"joints":[
				20,
				11,
				10,
				1,
				0,
				5,
				4,
				3,
				2,
				9,
				8,
				7,
				6,
				15,
				14,
				13,
				12,
				19,
				18,
				17,
				16
			],
			"name":"Root"
		}
	],
	"accessors":[
		{
			"bufferView":0,
			"componentType":5126,
			"count":927,
			"max":[
				0.8572426438331604,
				1.7996424436569214,
				0.19949999451637268
			],
			"min":[
				-0.8572426438331604,
				-3.111785318310467e-08,
				-0.12199985980987549
			],
			"type":"VEC3"
		},
		{
			"bufferView":1,
			"componentType":5126,
			"count":927,
			"type":"VEC3"
		},
		{
			"bufferView":2,
			"componentType":5126,
			"count":927,
			"type":"VEC2"
		},
		{
			"bufferView":3,
			"componentType":5121,
			"count":927,
			"type":"VEC4"
		},
		{
			"bufferView":4,
			"componentType":5126,
			"count":927,
			"type":"VEC4"
		},
		{
			"bufferView":5,
			"componentType":5123,
			"count":4176,
			"type":"SCALAR"
		},
		{
			"bufferView":6,
			"componentType":5126,
			"count":21,
			"type":"MAT4"
		}
	],
	"bufferViews":[
		{
			"buffer":0,
			"byteLength":11124,
			"byteOffset":0,
			"target":34962
		},
		{
			"buffer":0,
			"byteLength":11124,
			"byteOffset":11124,
			"target":34962
		},
		{
			"buffer":0,
			"byteLength":7416,
			"byteOffset":22248,
			"target":34962
		},
		{
			"buffer":0,
			"byteLength":3708,
			"byteOffset":29664,
			"target":34962
		},
		{
			"buffer":0,
			"byteLength":14832,
			"byteOffset":33372,
			"target":34962
		},
		{
			"buffer":0,
			"byteLength":8352,
			"byteOffset":48204,
			"target":34963
		},
		{
			"buffer":0,
			"byteLength":1344,
			"byteOffset":56556
		}
	],
	"buffers":[
		{
			"byteLength":57900,
			"uri":"T_Pose.bin"
		}
	]
}
