{
	"asset":{
		"generator":"Khronos glTF Blender I/O v3.6.28",
		"version":"2.0"
	},
	"scene":0,
	"scenes":[
		{
			"name":"Scene",
			"nodes":[
				3
			]
		}
	],
	"nodes":[
		{
			"mesh":0,
			"name":"defaultMaterial"
		},
		{
			"children":[
				0
			],
			"name":"ZBrush_defualt_group"
		},
		{
			"children":[
				1
			],
			"name":"Collada visual scene group",
			"rotation":[
				0.70710688829422,
				0,
				0,
				0.7071066498756409
			]
		},
		{
			"children":[
				2
			],
			"name":"Sketchfab_model",
			"rotation":[
				-0.70710688829422,
				0,
				0,
				0.7071066498756409
			],
			"scale":[
				9.389716148376465,
				9.389717102050781,
				9.389717102050781
			]
		}
	],
	"materials":[
		{
			"doubleSided":true,
			"name":"Default_OBJ",
			"normalTexture":{
				"index":0
			},
			"occlusionTexture":{
				"index":1
			},
			"pbrMetallicRoughness":{
				"baseColorTexture":{
					"index":2
				},
				"metallicFactor":0,
				"metallicRoughnessTexture":{
					"index":1
				}
			}
		}
	],
	"meshes":[
		{
			"name":"defaultMaterial",
			"primitives":[
				{
					"attributes":{
						"POSITION":0,
						"NORMAL":1,
						"TEXCOORD_0":2
					},
					"indices":3,
					"material":0
				}
			]
		}
	],
	"textures":[
		{
			"sampler":0,
			"source":0
		},
		{
			"sampler":0,
			"source":1
		},
		{
			"sampler":0,
			"source":2
		}
	],
	"images":[
		{
			"mimeType":"image/png",
			"name":"Default_OBJ_normal",
			"uri":"Default_OBJ_normal.png"
		},
		{
			"mimeType":"image/png",
			"name":"Default_OBJ_metallicRoughness",
			"uri":"Default_OBJ_metallicRoughness.png"
		},
		{
			"mimeType":"image/jpeg",
			"name":"Default_OBJ_baseColor",
			"uri":"Default_OBJ_baseColor.jpg"
		}
	],
	"accessors":[
		{
			"bufferView":0,
			"componentType":5126,
			"count":16576,
			"max":[
				68.14470672607422,
				102.2150650024414,
				102.75653076171875
			],
			"min":[
				-61.9102897644043,
				-2.89154052734375,
				-97.24346923828125
			],
			"type":"VEC3"
		},
		{
			"bufferView":1,
			"componentType":5126,
			"count":16576,
			"type":"VEC3"
		},
		{
			"bufferView":2,
			"componentType":5126,
			"count":16576,
			"type":"VEC2"
		},
		{
			"bufferView":3,
			"componentType":5123,
			"count":16638,
			"type":"SCALAR"
		}
	],
	"bufferViews":[
		{
			"buffer":0,
			"byteLength":198912,
			"byteOffset":0,
			"target":34962
		},
		{
			"buffer":0,
			"byteLength":198912,
			"byteOffset":198912,
			"target":34962
		},
		{
			"buffer":0,
			"byteLength":132608,
			"byteOffset":397824,
			"target":34962
		},
		{
			"buffer":0,
			"byteLength":33276,
			"byteOffset":530432,
			"target":34963
		}
	],
	"samplers":[
		{
			"magFilter":9729,
			"minFilter":9987
		}
	],
	"buffers":[
		{
			"byteLength":563708,
			"uri":"Mountain.bin"
		}
	]
}
