{
	"asset":{
		"generator":"Khronos glTF Blender I/O v4.2.69",
		"version":"2.0"
	},
	"extensionsUsed":[
		"KHR_materials_specular"
	],
	"scene":0,
	"scenes":[
		{
			"name":"Scene",
			"nodes":[
				0
			]
		}
	],
	"nodes":[
		{
			"mesh":0,
			"name":"Leaves1_LOD0"
		}
	],
	"materials":[
		{
			"alphaMode":"BLEND",
			"doubleSided":true,
			"extensions":{
				"KHR_materials_specular":{
					"specularColorFactor":[
						2.0,
						2.0,
						2.0
					]
				}
			},
			"name":"Tree_1Mat.001",
			"pbrMetallicRoughness":{
				"roughnessFactor":0.5527864098548889
			}
		}
	],
	"meshes":[
		{
			"name":"Mesh.001",
			"primitives":[
				{
					"attributes":{
						"POSITION":0,
						"NORMAL":1,
						"TEXCOORD_0":2,
						"COLOR_0":3,
						"COLOR_1":4
					},
					"indices":5,
					"material":0
				}
			]
		}
	],
	"accessors":[
		{
			"bufferView":0,
			"componentType":5126,
			"count":5952,
			"max":[
				3.2670609951019287,
				7.7045698165893555,
				3.45269513130188
			],
			"min":[
				-2.8912878036499023,
				2.644719362258911,
				-3.0770108699798584
			],
			"type":"VEC3"
		},
		{
			"bufferView":1,
			"componentType":5126,
			"count":5952,
			"type":"VEC3"
		},
		{
			"bufferView":2,
			"componentType":5126,
			"count":5952,
			"type":"VEC2"
		},
		{
			"bufferView":3,
			"componentType":5121,
			"count":5952,
			"normalized":true,
			"type":"VEC4"
		},
		{
			"bufferView":4,
			"componentType":5126,
			"count":5952,
			"type":"VEC3"
		},
		{
			"bufferView":5,
			"componentType":5123,
			"count":8928,
			"type":"SCALAR"
		}
	],
	"bufferViews":[
		{
			"buffer":0,
			"byteLength":71424,
			"byteOffset":0,
			"target":34962
		},
		{
			"buffer":0,
			"byteLength":71424,
			"byteOffset":71424,
			"target":34962
		},
		{
			"buffer":0,
			"byteLength":47616,
			"byteOffset":142848,
			"target":34962
		},
		{
			"buffer":0,
			"byteLength":23808,
			"byteOffset":190464,
			"target":34962
		},
		{
			"buffer":0,
			"byteLength":71424,
			"byteOffset":214272,
			"target":34962
		},
		{
			"buffer":0,
			"byteLength":17856,
			"byteOffset":285696,
			"target":34963
		}
	],
	"buffers":[
		{
			"byteLength":303552,
			"uri":"Ash1.bin"
		}
	]
}
